{
	"asset":{
		"generator":"Khronos glTF Blender I/O v4.5.48",
		"version":"2.0"
	},
	"extensionsUsed":[
		"KHR_lights_punctual",
		"KHR_materials_unlit"
	],
	"extensionsRequired":[
		"KHR_lights_punctual"
	],
	"extensions":{
		"KHR_lights_punctual":{
			"lights":[
				{
					"color":[
						1,
						1,
						1
					],
					"intensity":183.02818455567964,
					"type":"point",
					"name":"Light"
				}
			]
		}
	},
	"scene":0,
	"scenes":[
		{
			"name":"Scene",
			"nodes":[
				0,
				1,
				2,
				4
			]
		}
	],
	"nodes":[
		{
			"extensions":{
				"KHR_lights_punctual":{
					"light":0
				}
			},
			"name":"Light",
			"rotation":[
				-0.28416627645492554,
				0.7269423007965088,
				0.34203392267227173,
				0.5232754945755005
			],
			"translation":[
				4.076245307922363,
				5.903861999511719,
				-1.0054539442062378
			]
		},
		{
			"camera":0,
			"name":"Camera",
			"rotation":[
				-0.19996410608291626,
				0.37361231446266174,
				0.0828278437256813,
				0.901979923248291
			],
			"translation":[
				7,
				5.400000095367432,
				7
			]
		},
		{
			"name":"Outline"
		},
		{
			"name":"Detail",
			"rotation":[
				-0.7071068286895752,
				0,
				0,
				0.7071068286895752
			],
			"translation":[
				-0.026516906917095184,
				-0.026878096163272858,
				0
			]
		},
		{
			"children":[
				3
			],
			"mesh":0,
			"name":"model",
			"rotation":[
				0.7071068286895752,
				0,
				0,
				0.7071068286895752
			],
			"translation":[
				0.026516906917095184,
				0,
				0.026878096163272858
			]
		}
	],
	"cameras":[
		{
			"name":"Camera",
			"orthographic":{
				"xmag":1.149999976158142,
				"ymag":1.149999976158142,
				"zfar":100,
				"znear":0.10000000149011612
			},
			"type":"orthographic"
		}
	],
	"materials":[
		{
			"doubleSided":true,
			"extensions":{
				"KHR_materials_unlit":{}
			},
			"name":"Material.001",
			"pbrMetallicRoughness":{
				"metallicFactor":0,
				"roughnessFactor":0.9
			}
		}
	],
	"meshes":[
		{
			"name":"model",
			"primitives":[
				{
					"attributes":{
						"POSITION":0,
						"NORMAL":1,
						"TEXCOORD_0":2,
						"TANGENT":3
					},
					"indices":4,
					"material":0
				}
			]
		}
	],
	"accessors":[
		{
			"bufferView":0,
			"componentType":5126,
			"count":651384,
			"max":[
				0.3459368348121643,
				0.7030118107795715,
				0.009992899373173714
			],
			"min":[
				-0.3460446894168854,
				-0.7030060291290283,
				-1.8058922290802002
			],
			"type":"VEC3"
		},
		{
			"bufferView":1,
			"componentType":5126,
			"count":651384,
			"type":"VEC3"
		},
		{
			"bufferView":2,
			"componentType":5126,
			"count":651384,
			"type":"VEC2"
		},
		{
			"bufferView":3,
			"componentType":5126,
			"count":651384,
			"type":"VEC4"
		},
		{
			"bufferView":4,
			"componentType":5125,
			"count":2999328,
			"type":"SCALAR"
		}
	],
	"bufferViews":[
		{
			"buffer":0,
			"byteLength":7816608,
			"byteOffset":0,
			"target":34962
		},
		{
			"buffer":0,
			"byteLength":7816608,
			"byteOffset":7816608,
			"target":34962
		},
		{
			"buffer":0,
			"byteLength":5211072,
			"byteOffset":15633216,
			"target":34962
		},
		{
			"buffer":0,
			"byteLength":10422144,
			"byteOffset":20844288,
			"target":34962
		},
		{
			"buffer":0,
			"byteLength":11997312,
			"byteOffset":31266432,
			"target":34963
		}
	],
	"buffers":[
		{
			"byteLength":43263744,
			"uri":"Alebrijito-a265483632580c6ffb31135c0504b464.bin"
		}
	]
}
