{
	"asset":{
		"generator":"Khronos glTF Blender I/O v4.5.48",
		"version":"2.0"
	},
	"extensionsUsed":[
		"KHR_lights_punctual",
		"KHR_materials_unlit"
	],
	"extensionsRequired":[
		"KHR_lights_punctual"
	],
	"extensions":{
		"KHR_lights_punctual":{
			"lights":[
				{
					"color":[
						1,
						1,
						1
					],
					"intensity":79.57747154594767,
					"type":"point",
					"name":"Light"
				}
			]
		}
	},
	"scene":0,
	"scenes":[
		{
			"name":"Scene",
			"nodes":[
				0,
				1,
				3
			]
		}
	],
	"nodes":[
		{
			"extensions":{
				"KHR_lights_punctual":{
					"light":0
				}
			},
			"name":"Light",
			"rotation":[
				-0.28416627645492554,
				0.7269423007965088,
				0.34203392267227173,
				0.5232754945755005
			],
			"translation":[
				4.076245307922363,
				5.903861999511719,
				-1.0054539442062378
			]
		},
		{
			"camera":0,
			"name":"Camera",
			"rotation":[
				-0.19996410608291626,
				0.37361231446266174,
				0.0828278437256813,
				0.901979923248291
			],
			"translation":[
				7,
				5.400000095367432,
				7
			]
		},
		{
			"name":"GPencil",
			"rotation":[
				-0.7071068286895752,
				0,
				0,
				0.7071068286895752
			]
		},
		{
			"children":[
				2
			],
			"mesh":0,
			"name":"model",
			"rotation":[
				0.7071068286895752,
				0,
				0,
				0.7071068286895752
			]
		}
	],
	"cameras":[
		{
			"name":"Camera",
			"orthographic":{
				"xmag":1.149999976158142,
				"ymag":1.149999976158142,
				"zfar":100,
				"znear":0.10000000149011612
			},
			"type":"orthographic"
		}
	],
	"materials":[
		{
			"doubleSided":true,
			"extensions":{
				"KHR_materials_unlit":{}
			},
			"name":"Material.001",
			"pbrMetallicRoughness":{
				"metallicFactor":0,
				"roughnessFactor":0.9
			}
		}
	],
	"meshes":[
		{
			"name":"model",
			"primitives":[
				{
					"attributes":{
						"POSITION":0,
						"NORMAL":1,
						"TEXCOORD_0":2,
						"TANGENT":3
					},
					"indices":4,
					"material":0
				}
			]
		}
	],
	"accessors":[
		{
			"bufferView":0,
			"componentType":5126,
			"count":367192,
			"max":[
				0.41790300607681274,
				0.6041499972343445,
				0
			],
			"min":[
				-0.4182569980621338,
				-0.6037240028381348,
				-1.7557740211486816
			],
			"type":"VEC3"
		},
		{
			"bufferView":1,
			"componentType":5126,
			"count":367192,
			"type":"VEC3"
		},
		{
			"bufferView":2,
			"componentType":5126,
			"count":367192,
			"type":"VEC2"
		},
		{
			"bufferView":3,
			"componentType":5126,
			"count":367192,
			"type":"VEC4"
		},
		{
			"bufferView":4,
			"componentType":5125,
			"count":1499250,
			"type":"SCALAR"
		}
	],
	"bufferViews":[
		{
			"buffer":0,
			"byteLength":4406304,
			"byteOffset":0,
			"target":34962
		},
		{
			"buffer":0,
			"byteLength":4406304,
			"byteOffset":4406304,
			"target":34962
		},
		{
			"buffer":0,
			"byteLength":2937536,
			"byteOffset":8812608,
			"target":34962
		},
		{
			"buffer":0,
			"byteLength":5875072,
			"byteOffset":11750144,
			"target":34962
		},
		{
			"buffer":0,
			"byteLength":5997000,
			"byteOffset":17625216,
			"target":34963
		}
	],
	"buffers":[
		{
			"byteLength":23622216,
			"uri":"LoroL%C3%B3gico-3055b58707c0656b3cd01595a6b83e01.bin"
		}
	]
}
